<svg width="48" height="48" viewBox="0 0 48 48" fill="none" xmlns="http://www.w3.org/2000/svg">
<path fill-rule="evenodd" clip-rule="evenodd" d="M12 0C5.37258 0 0 5.37258 0 12V36C0 42.6274 5.37258 48 12 48H36C42.6274 48 48 42.6274 48 36V12C48 5.37258 42.6274 0 36 0H12ZM16 12C13.7909 12 12 13.7909 12 16V24C12 30.6274 17.3726 36 24 36H28.9706C32.8528 36 36 32.8528 36 28.9706V21.6569C36 18.0932 31.66 16.34 29.1402 18.8598C28.4135 19.5865 27.4226 20 26.3949 20C24.9271 20 23.5854 19.1707 22.929 17.8579L21.7889 15.5777C20.6925 13.3851 18.4515 12 16 12Z" fill="#16D886"/>
</svg>
